<?xml version="1.0" standalone="no"?><!DOCTYPE svg PUBLIC "-//W3C//DTD SVG 1.1//EN" "http://www.w3.org/Graphics/SVG/1.1/DTD/svg11.dtd"><svg t="1706028641417" class="icon" viewBox="0 0 2252 1024" version="1.1" xmlns="http://www.w3.org/2000/svg" p-id="5821" xmlns:xlink="http://www.w3.org/1999/xlink" width="439.84375" height="200"><path d="M213.263756 184.828589m241.698924 0l995.230861 0q241.698924 0 241.698924 241.698923l0 0q0 241.698924-241.698924 241.698924l-995.230861 0q-241.698924 0-241.698924-241.698924l0 0q0-241.698924 241.698924-241.698923Z" fill="#000000" p-id="5822"></path><path d="M1172.950658 106.631878c-272.977608-11.374067-464.445808 52.13588-526.050598 85.305502l682.444019 476.289056h469.180264c49.761543 0 78.196711-42.652751 78.19671-92.414295 0-85.305502-85.305502-99.523086-85.305502-113.74067-42.652751-255.916507-277.242883-341.22201-618.464893-355.439593z" fill="#000000" p-id="5823" data-spm-anchor-id="a313x.search_index.0.i2.3dd93a81HaATcf" class="selected"></path><path d="M1691.97777 291.318291l-0.085305 0.142176 49.761543 42.652751c63.979127-49.761543 106.375962-208.970046 25.847567-266.13895-136.801591-97.120314-238.357791 76.774952-100.162878 123.408627 67.050125 22.648611 36.098445 79.049766 24.639073 99.935396z" fill="#000000" p-id="5824"></path><path d="M338.378493 183.40683l1.919374-1.421758 0.654009-2.317466c3.227392-11.288761 10.677405-24.724378 20.814542-38.771351a343.383082 343.383082 0 0 1 35.13165-40.790248c12.682085-12.682085 25.506345-23.743365 36.354361-31.591471a111.750208 111.750208 0 0 1 14.189149-8.957078c4.208405-2.132638 6.611176-2.687123 7.521102-2.687123 1.521281 0 3.852965 0.853055 6.995051 4.080446 3.085216 3.142086 6.170431 7.791236 9.099253 13.4214 5.829209 11.203456 10.265095 24.852336 12.554127 33.980025L497.615431 106.631878c0-3.966706 1.379106-9.611087 4.194187-16.193828 2.772429-6.469001 6.724917-13.321876 11.317197-19.59183 4.606497-6.284172 9.696392-11.729507 14.686764-15.554037 5.11833-3.909836 9.383605-5.53064 12.454603-5.53064 27.667418 0 51.282825 20.430668 70.0216 49.19284 18.056331 27.724288 30.368759 61.405744 36.340144 85.589854L492.340707 661.444648c-34.392335 2.018897-89.428602 1.691892-148.289398-5.601728-61.775401-7.663278-127.076763-22.904527-177.094223-50.699903-62.415193-34.690904-91.291105-79.362552-101.428243-118.204992-5.089895-19.506525-5.47377-37.591291-2.985692-52.334925 2.53073-14.928463 7.862324-25.776479 13.577792-31.477731 18.212725-18.226942 44.13138-22.321606 71.016831-26.544229l4.976154-0.796184c13.833709-2.203725 27.923334-4.762891 39.823452-10.222443 12.227122-5.601728 22.378477-14.388195 27.965988-28.89013C247.670309 264.447057 310.512029 204.306678 338.378493 183.40683z" fill="#000000" p-id="5825"></path><path d="M263.025299 390.983553c-22.748134-45.496268-11.843247-104.257542-7.108792-127.958254-35.543959 56.870335-21.326376 102.110686-106.631878 113.74067-156.393421 14.217584-71.087919 177.719797 7.108792 220.372548 72.779811 39.695494 156.393421 63.979127 220.372548 56.870335 42.396835-4.70602 120.849462-78.196711 63.979127-120.849462s-149.284629-85.305502-177.719797-142.175837z" fill="#FFFFFF" p-id="5826"></path><path d="M200.610107 368.164331c-12.312428 7.435796-28.435167 12.65365-50.358682 15.639342l-0.170611 0.028435h-0.142176c-37.932513 3.454873-59.585893 15.795736-70.718261 31.47773-11.160803 15.724648-12.938001 36.48232-7.435797 59.31576 5.487987 22.790787 18.056331 46.77585 34.150636 67.761004 16.12274 20.970936 35.401784 38.430129 53.856208 48.510396 72.154237 39.354272 154.246566 62.927026 216.192578 56.045715 9.056601-0.995231 20.82876-5.857644 32.743095-13.734186 11.800595-7.819671 23.174661-18.198507 31.520383-29.60101 8.388374-11.459372 13.336094-23.345272 13.350311-34.250159 0-10.478359-4.506974-21.042024-17.11797-30.510934-13.975885-10.478359-30.198148-21.013589-47.316119-31.904258l-8.53055-5.402682a1501.504801 1501.504801 0 0 1-43.420501-28.264557c-33.780979-23.117791-65.42932-48.880053-80.542612-79.106636-12.084946-24.18411-15.099074-51.552959-14.615676-75.495369 0.085306-4.17997 0.284352-8.274634 0.554486-12.255557l-1.805633 4.521191c-4.123099 10.364619-8.160893 20.473321-13.392964 29.487269-6.255737 10.762711-14.35976 20.245839-26.800145 27.738506z m29.046523-67.675699c5.047242-12.511474 11.00441-26.473141 20.231622-41.230993l12.994871 5.160983c-2.345901 11.757942-6.156214 31.875823-6.611176 54.552869-0.46918 22.748134 2.459642 47.515165 13.108612 68.827323 13.321876 26.643752 42.098265 50.643033 75.850809 73.732389a1485.310973 1485.310973 0 0 0 42.965538 27.95177l8.601638 5.47377c17.103753 10.876452 33.752544 21.667598 48.211827 32.515614 15.824171 11.857465 22.819222 26.487358 22.805004 41.913436-0.028435 15.013768-6.696482 29.800056-16.108522 42.624316-9.454693 12.909566-22.094125 24.425809-35.145867 33.055883-12.938001 8.558985-26.871233 14.658329-39.01305 16.008999-66.012241 7.336273-151.132915-17.644021-224.552517-57.694955-20.629714-11.246109-41.344734-30.226583-58.334746-52.334926-16.990013-22.136778-30.638893-47.913257-36.709802-73.092598-6.042473-25.150906-4.70602-50.614598 9.667957-70.874654 14.402412-20.274274 40.676507-33.695673 80.855399-37.378028 20.658149-2.829299 34.690904-7.606407 44.785389-13.705751 10.009179-6.028256 16.563485-13.59201 21.852426-22.705481 4.677585-8.032935 8.260416-17.046883 12.426168-27.468372l2.132638-5.317376z" fill="#000000" p-id="5827"></path><path d="M170.611005 405.201136c-5.687033-17.0611-28.435167-26.060831-42.652751-28.435167-78.196711 21.326376-63.979127 63.979127-63.979127 71.087919 63.979127 35.543959 113.74067-21.326376 106.631878-42.652752z" fill="#000000" p-id="5828"></path><path d="M405.201136 170.611005H355.439593c11.843247-21.326376 38.387476-63.979127 49.761543-63.979127 11.374067 0 4.734455 42.652751 0 63.979127zM540.268182 206.154964c-28.435167 0-49.761543-23.700712-56.870335-35.543959 0-7.108792 28.435167-85.305502 42.652751-85.305503s28.435167 120.849462 14.217584 120.849462z" fill="#FFFFFF" p-id="5829"></path><path d="M284.351675 355.439593a42.652751 28.435167 90 1 0 56.870335 0 42.652751 28.435167 90 1 0-56.870335 0Z" fill="#FFFFFF" p-id="5830"></path><path d="M284.351675 362.548385a21.326376 14.217584 90 1 0 28.435167 0 21.326376 14.217584 90 1 0-28.435167 0Z" fill="#000000" p-id="5831"></path><path d="M1770.089175 639.791268c-15.013768-8.345722 5.089895-137.626211 18.468641-141.408088 25.179341-7.108792 75.011972 35.586612 64.817965 91.532804-10.364619 56.870335-59.102496 63.325118-83.286606 49.875284z" fill="#FFFFFF" p-id="5832"></path></svg>